<svg xmlns="http://www.w3.org/2000/svg" width="512" height="300" viewBox="0 0 512 300" fill="none">

<style>
@keyframes blink { 0%, 92%, 100% { transform: scaleY(1); } 95% { transform: scaleY(0.1); } }
@keyframes bob { 0%,100% { transform: translateY(0px); } 50% { transform: translateY(2.5px); } }
</style>

<defs>
  <linearGradient id="zFish" x1="0" y1="0" x2="1" y2="1">
    <stop offset="0%" stop-color="#2EC4B6"/>
    <stop offset="100%" stop-color="#1aa89b"/>
  </linearGradient>
  <linearGradient id="brainGrad" x1="0" y1="0" x2="1" y2="1">
    <stop offset="0%" stop-color="#FF6B6B"/>
    <stop offset="100%" stop-color="#ff9387"/>
  </linearGradient>
</defs>
<path d="M60 150c0-60 80-110 170-110 26 0 72 12 92 24l46-24v220l-46-24c-22 12-66 24-92 24-90 0-170-50-170-110z"
      fill="url(#zFish)" stroke="#0B132B" stroke-width="8" stroke-linejoin="round"/>
<path d="M368 62l74 64-74 64v-128z"
      fill="url(#zFish)" stroke="#0B132B" stroke-width="8" stroke-linejoin="round"/>
<g transform="translate(160,70)">
  <path d="M0 30c10-28 48-44 82-28 18 8 30 24 30 42-20 8-42 12-64 12-18 0-32-2-48-6z"
        fill="url(#brainGrad)" stroke="#0B132B" stroke-width="6"/>
</g>
<g transform="translate(150,130)" style="animation:bob 4s ease-in-out infinite;">
  <circle cx="0" cy="0" r="18" fill="#F7F5F0" stroke="#0B132B" stroke-width="4"/>
  <g transform-origin="0 0" style="animation:blink 6s infinite;">
    <ellipse cx="0" cy="0" rx="6" ry="6" fill="#0B132B"/>
  </g>
</g>
<path d="M256 172l14 10-14 10z" fill="#F7F5F0" stroke="#0B132B" stroke-width="3"/>
<path d="M280 172l14 10-14 10z" fill="#F7F5F0" stroke="#0B132B" stroke-width="3"/>
</svg>