<svg xmlns="http://www.w3.org/2000/svg" width="512" height="512" viewBox="0 0 512 512" fill="none">


<path d="M120 140h70c40 0 60 20 60 50s-20 50-60 50h-70z" fill="#2EC4B6" stroke="#0B132B" stroke-width="12"/>
<path d="M120 240h70c40 0 60 20 60 50s-20 50-60 50h-70z" fill="#2EC4B6" stroke="#0B132B" stroke-width="12"/>
<path d="M260 140h70c40 0 60 20 60 50s-20 50-60 50h-70z" fill="#2EC4B6" stroke="#0B132B" stroke-width="12"/>
<path d="M260 240h70c40 0 60 20 60 50s-20 50-60 50h-70z" fill="#2EC4B6" stroke="#0B132B" stroke-width="12"/>
<path d="M420 130c0 100-40 160-120 200" fill="none" stroke="#0B132B" stroke-width="12" stroke-linecap="round"/>
<circle cx="420" cy="130" r="8" fill="#0B132B"/>

</svg>