<svg xmlns="http://www.w3.org/2000/svg" width="900" height="300" viewBox="0 0 900 300" fill="none">


<g transform="translate(0,0)">
  <rect width="900" height="300" fill="none"/>
</g>
<g transform="translate(10, -110) scale(0.6)">
  
<defs>
  <mask id="biteMask">
    <rect width="512" height="512" fill="white"/>
    <circle cx="235" cy="180" r="24" fill="black"/>
    <circle cx="265" cy="220" r="18" fill="black"/>
    <circle cx="230" cy="255" r="14" fill="black"/>
  </mask>
</defs>
<g mask="url(#biteMask)">
  <path d="M120 256c0-70 90-120 180-120 20 0 60 10 80 20l60-30v260l-60-30c-20 10-60 20-80 20-90 0-180-50-180-120z"
        fill="#2EC4B6" stroke="#0B132B" stroke-width="10" stroke-linejoin="round"/>
</g>
<path d="M420 146l72 66-72 66v-132z" fill="#2EC4B6" stroke="#0B132B" stroke-width="10" stroke-linejoin="round"/>
<circle cx="210" cy="224" r="10" fill="#0B132B"/>

</g>
<g transform="translate(340,170)">
  <path d="M0 0h28c16 0 26 8 26 20 0 9-5 15-12 18 9 3 16 10 16 20 0 14-12 24-30 24H0z" fill="#0B132B"/>
  <rect x="80" y="0" width="18" height="82" fill="#0B132B"/>
  <rect x="110" y="0" width="18" height="82" fill="#0B132B"/>
  <rect x="140" y="0" width="46" height="16" fill="#0B132B"/>
  <rect x="140" y="33" width="46" height="16" fill="#0B132B"/>
  <rect x="140" y="66" width="46" height="16" fill="#0B132B"/>
  <path d="M210 0h18v66c0 10 6 16 16 16s16-6 16-16V0h18v66c0 22-16 38-34 38s-34-16-34-38z" fill="#0B132B"/>
  <path d="M310 0h18v16h16c18 0 32 14 32 32s-14 34-32 34h-34z" fill="#0B132B"/>
  <circle cx="420" cy="16" r="16" fill="#0B132B"/>
  <rect x="406" y="33" width="28" height="49" fill="#0B132B"/>
  <path d="M460 0h18v66c0 10 6 16 16 16s16-6 16-16V0h18v66c0 22-16 38-34 38s-34-16-34-38z" fill="#0B132B"/>
  <path d="M560 0h18v16h16c18 0 32 14 32 32s-14 34-32 34h-34z" fill="#0B132B"/>
</g>

</svg>