<svg xmlns="http://www.w3.org/2000/svg" width="2560" height="1440" viewBox="0 0 2560 1440" preserveAspectRatio="xMidYMid slice">
  <defs>
    <linearGradient id="sky" x1="0" y1="0" x2="0" y2="1">
      <stop offset="0%" stop-color="#14213D"/>
      <stop offset="100%" stop-color="#223657"/>
    </linearGradient>
    <linearGradient id="water" x1="0" y1="0" x2="0" y2="1">
      <stop offset="0%" stop-color="#17334d"/>
      <stop offset="100%" stop-color="#0F243A"/>
    </linearGradient>
    <filter id="softBlur" x="-20%" y="-20%" width="140%" height="140%">
      <feGaussianBlur stdDeviation="5.12" />
    </filter>
  </defs>

  <!-- Sky -->
  <rect width="100%" height="864.0" fill="url(#sky)"/>

  <!-- Subtle sun glow -->
  <circle cx="1280.0" cy="503.99999999999994" r="259.2" fill="#2b6cb0" opacity="0.1" filter="url(#softBlur)"/>

  <!-- Distant hills -->
  <path d="M0 835.20 C 512.00 720.00, 1024.00 921.60, 1536.00 806.40
           S 2432.00 921.60, 2560.00 864.00 L 2560 1440 L 0 1440 Z" fill="#1b2b44" opacity="0.25"/>

  <!-- Treeline -->
  <path d="M0 792.0000000000001 L 10.5 735.0000000000001 L 21 792.0000000000001 Z M85 792.0000000000001 L 102.5 714.0000000000001 L 120 792.0000000000001 Z M170 792.0000000000001 L 184.0 721.0000000000001 L 198 792.0000000000001 Z M255 792.0000000000001 L 267.5 736.0000000000001 L 280 792.0000000000001 Z M340 792.0000000000001 L 351.0 695.0000000000001 L 362 792.0000000000001 Z M425 792.0000000000001 L 437.5 746.0000000000001 L 450 792.0000000000001 Z M510 792.0000000000001 L 527.0 722.0000000000001 L 544 792.0000000000001 Z M595 792.0000000000001 L 605.5 685.0000000000001 L 616 792.0000000000001 Z M680 792.0000000000001 L 696.0 678.0000000000001 L 712 792.0000000000001 Z M765 792.0000000000001 L 788.0 680.0000000000001 L 811 792.0000000000001 Z M850 792.0000000000001 L 874.0 721.0000000000001 L 898 792.0000000000001 Z M935 792.0000000000001 L 945.0 714.0000000000001 L 955 792.0000000000001 Z M1020 792.0000000000001 L 1043.5 729.0000000000001 L 1067 792.0000000000001 Z M1105 792.0000000000001 L 1123.5 706.0000000000001 L 1142 792.0000000000001 Z M1190 792.0000000000001 L 1206.5 730.0000000000001 L 1223 792.0000000000001 Z M1275 792.0000000000001 L 1288.0 706.0000000000001 L 1301 792.0000000000001 Z M1360 792.0000000000001 L 1382.0 738.0000000000001 L 1404 792.0000000000001 Z M1445 792.0000000000001 L 1466.0 737.0000000000001 L 1487 792.0000000000001 Z M1530 792.0000000000001 L 1548.0 705.0000000000001 L 1566 792.0000000000001 Z M1615 792.0000000000001 L 1639.5 744.0000000000001 L 1664 792.0000000000001 Z M1700 792.0000000000001 L 1713.5 681.0000000000001 L 1727 792.0000000000001 Z M1785 792.0000000000001 L 1797.5 701.0000000000001 L 1810 792.0000000000001 Z M1870 792.0000000000001 L 1889.0 679.0000000000001 L 1908 792.0000000000001 Z M1955 792.0000000000001 L 1971.0 703.0000000000001 L 1987 792.0000000000001 Z M2040 792.0000000000001 L 2051.0 741.0000000000001 L 2062 792.0000000000001 Z M2125 792.0000000000001 L 2144.0 720.0000000000001 L 2163 792.0000000000001 Z M2210 792.0000000000001 L 2227.0 739.0000000000001 L 2244 792.0000000000001 Z M2295 792.0000000000001 L 2317.0 737.0000000000001 L 2339 792.0000000000001 Z M2380 792.0000000000001 L 2404.5 714.0000000000001 L 2429 792.0000000000001 Z M2465 792.0000000000001 L 2480.0 703.0000000000001 L 2495 792.0000000000001 Z M2550 792.0000000000001 L 2571.0 702.0000000000001 L 2592 792.0000000000001 Z" fill="#1b2b44" opacity="0.35"/>

  <!-- Water -->
  <rect y="864.0" width="100%" height="576.0" fill="url(#water)"/>

  <!-- Gentle waves layers -->
  <path d="M 0 1007.9999999999999 Q 213.33 1036.79, 426.67 1008.00 Q 640.00 1006.32, 853.33 1008.00 Q 1066.67 979.31, 1280.00 1008.00 Q 1493.33 1011.36, 1706.67 1008.00 Q 1920.00 1036.49, 2133.33 1008.00 Q 2346.67 1002.98, 2560.00 1008.00 L 2560 1440 L 0 1440 Z" fill="#ffffff" opacity="0.10"/>
  <path d="M 0 1123.2 Q 213.33 1115.62, 426.67 1123.20 Q 640.00 1111.31, 853.33 1123.20 Q 1066.67 1144.78, 1280.00 1123.20 Q 1493.33 1109.70, 1706.67 1123.20 Q 1920.00 1117.51, 2133.33 1123.20 Q 2346.67 1143.39, 2560.00 1123.20 L 2560 1440 L 0 1440 Z" fill="#ffffff" opacity="0.07"/>
  <path d="M 0 1238.4 Q 213.33 1221.42, 426.67 1238.40 Q 640.00 1255.48, 853.33 1238.40 Q 1066.67 1223.20, 1280.00 1238.40 Q 1493.33 1249.97, 1706.67 1238.40 Q 1920.00 1231.80, 2133.33 1238.40 Q 2346.67 1239.27, 2560.00 1238.40 L 2560 1440 L 0 1440 Z" fill="#ffffff" opacity="0.05"/>

  <!-- Foreground reeds & cattails -->
  <path d="M128 1324.8 q 4 -49.0 0 -98" stroke="#1f3a4a" stroke-width="3.2" fill="none" stroke-linecap="round"/>
<path d="M234 1324.8 q -6 -79.5 0 -159" stroke="#1f3a4a" stroke-width="3.2" fill="none" stroke-linecap="round"/>
<path d="M340 1324.8 q -4 -46.5 0 -93" stroke="#1f3a4a" stroke-width="3.2" fill="none" stroke-linecap="round"/>
<rect x="331.12" y="1205.8799999999999" width="15.36" height="28.8" rx="7.68" fill="#20485a" opacity="0.6"/>
<path d="M446 1324.8 q 4 -60.0 0 -120" stroke="#1f3a4a" stroke-width="3.2" fill="none" stroke-linecap="round"/>
<path d="M552 1324.8 q -4 -76.5 0 -153" stroke="#1f3a4a" stroke-width="3.2" fill="none" stroke-linecap="round"/>
<path d="M658 1324.8 q -6 -85.0 0 -170" stroke="#1f3a4a" stroke-width="3.2" fill="none" stroke-linecap="round"/>
<rect x="648.5200000000001" y="1128.8799999999999" width="15.36" height="28.8" rx="7.68" fill="#20485a" opacity="0.6"/>
<path d="M764 1324.8 q 4 -38.0 0 -76" stroke="#1f3a4a" stroke-width="3.2" fill="none" stroke-linecap="round"/>
<rect x="757.5200000000001" y="1222.8799999999999" width="15.36" height="28.8" rx="7.68" fill="#20485a" opacity="0.6"/>
<path d="M870 1324.8 q -4 -40.0 0 -80" stroke="#1f3a4a" stroke-width="3.2" fill="none" stroke-linecap="round"/>
<path d="M976 1324.8 q 4 -72.0 0 -144" stroke="#1f3a4a" stroke-width="3.2" fill="none" stroke-linecap="round"/>
<rect x="969.5200000000001" y="1154.8799999999999" width="15.36" height="28.8" rx="7.68" fill="#20485a" opacity="0.6"/>
<path d="M1082 1324.8 q 6 -67.5 0 -135" stroke="#1f3a4a" stroke-width="3.2" fill="none" stroke-linecap="round"/>
<path d="M1188 1324.8 q 6 -77.0 0 -154" stroke="#1f3a4a" stroke-width="3.2" fill="none" stroke-linecap="round"/>
<rect x="1182.12" y="1144.8799999999999" width="15.36" height="28.8" rx="7.68" fill="#20485a" opacity="0.6"/>
<path d="M1294 1324.8 q -4 -44.5 0 -89" stroke="#1f3a4a" stroke-width="3.2" fill="none" stroke-linecap="round"/>
<path d="M1400 1324.8 q 4 -70.0 0 -140" stroke="#1f3a4a" stroke-width="3.2" fill="none" stroke-linecap="round"/>
<path d="M1506 1324.8 q 6 -63.0 0 -126" stroke="#1f3a4a" stroke-width="3.2" fill="none" stroke-linecap="round"/>
<rect x="1500.12" y="1172.8799999999999" width="15.36" height="28.8" rx="7.68" fill="#20485a" opacity="0.6"/>
<path d="M1612 1324.8 q 6 -44.5 0 -89" stroke="#1f3a4a" stroke-width="3.2" fill="none" stroke-linecap="round"/>
<rect x="1606.12" y="1209.8799999999999" width="15.36" height="28.8" rx="7.68" fill="#20485a" opacity="0.6"/>
<path d="M1718 1324.8 q -6 -39.0 0 -78" stroke="#1f3a4a" stroke-width="3.2" fill="none" stroke-linecap="round"/>
<rect x="1708.52" y="1220.8799999999999" width="15.36" height="28.8" rx="7.68" fill="#20485a" opacity="0.6"/>
<path d="M1824 1324.8 q 6 -46.0 0 -92" stroke="#1f3a4a" stroke-width="3.2" fill="none" stroke-linecap="round"/>
<rect x="1818.12" y="1206.8799999999999" width="15.36" height="28.8" rx="7.68" fill="#20485a" opacity="0.6"/>
<path d="M1930 1324.8 q 6 -60.5 0 -121" stroke="#1f3a4a" stroke-width="3.2" fill="none" stroke-linecap="round"/>
<rect x="1924.12" y="1177.8799999999999" width="15.36" height="28.8" rx="7.68" fill="#20485a" opacity="0.6"/>
<path d="M2036 1324.8 q 4 -65.5 0 -131" stroke="#1f3a4a" stroke-width="3.2" fill="none" stroke-linecap="round"/>
<path d="M2142 1324.8 q -6 -36.5 0 -73" stroke="#1f3a4a" stroke-width="3.2" fill="none" stroke-linecap="round"/>
<path d="M2248 1324.8 q 4 -70.0 0 -140" stroke="#1f3a4a" stroke-width="3.2" fill="none" stroke-linecap="round"/>
<path d="M2354 1324.8 q -6 -57.5 0 -115" stroke="#1f3a4a" stroke-width="3.2" fill="none" stroke-linecap="round"/>
<rect x="2344.52" y="1183.8799999999999" width="15.36" height="28.8" rx="7.68" fill="#20485a" opacity="0.6"/>

  <!-- Soft fog strip to reduce contrast for UI readability -->
  <rect y="864.0" width="100%" height="576.0" fill="rgba(255,255,255,0.05)"/>
</svg>